<svg height="64" viewBox="0 0 165 64" width="165" xmlns="http://www.w3.org/2000/svg" xmlns:xlink="http://www.w3.org/1999/xlink"><mask id="a" fill="#fff"><path d="m.01460314.04165149h16.98874306v22.17357241h-16.98874306z" fill="none"/></mask><mask id="b" fill="#fff"><path d="m0 63.9705011h163.99212v-63.9705011h-163.99212z" fill="none"/></mask><g fill="none" fill-rule="evenodd" transform="translate(1)"><path d="m18.8541234 33.8799743c.1229816.6077057.2391881 1.2154114.348546 1.8230436.1025829.6077058.1913947 1.2189426.2665829 1.8333426.0820368.6076321.1538374 1.2187954.2153282 1.8332689.0546421.6145472.0991217 1.2324782.1332914 1.8537931.1503027 1.4266115.2528855 2.861315.3076013 4.3015357.0546421 1.4402942.0546421 2.881839 0 4.3220597-.0478671 1.4402943-.1470624 2.8783816-.2973651 4.3118345-.1503026 1.4266115-.3520808 2.8510897-.6048927 4.2708598-.0820368.4438069-.1640736.8842299-.2461104 1.3211954-.0888119.4369655-.1810849.873931-.2768191 1.3108965-.1025092.4370391-.2050184.8706207-.3075276 1.3008184-.1093579.436892-.2221769.8705472-.3383834 1.3006713h-14.18979259c-.11620656-.4301241-.2290256-.8637793-.33838348-1.3006713-.10935788-.4301977-.21186708-.8637793-.30752761-1.3008184-.09573417-.4369655-.18800719-.873931-.27681904-1.3108965-.0888855-.4369655-.17092232-.8773885-.24611046-1.3211954-.25281186-1.4197701-.45459004-2.8442483-.60489269-4.2708598-.15030264-1.4334529-.24949797-2.8715402-.29736506-4.3118345-.05464212-1.4402207-.05464212-2.8817655 0-4.3220597.04786709-1.4402207.15044993-2.8749242.30760126-4.3015357.03416973-.6213149.0786493-1.2392459.13329142-1.8537931.06149079-.6144735.12990391-1.2256368.20509205-1.8332689.08196318-.6144.17430984-1.2256368.27681904-1.8333426.10250921-.6076322.21871576-1.2153379.34854603-1.8230436.31430265-1.5081932.70084777-3.0049104 1.1586044-4.4858115.45775662-1.4742069.98112797-2.926492 1.56864122-4.3528828.59436192-1.4331586 1.25463314-2.8341701 1.97882532-4.1991356.72411855-1.364892 1.51436732-2.6941058 2.36838979-3.9840368.0407975-.0748138.0924939-.1402115.1537638-.1946483.0544212-.061131.1199623-.112846.1947822-.1536.0680449-.0408276.1438958-.0717977.2255644-.0921747.0816687-.020377.1644419-.0307494.2461105-.0307494s.1643682.0103724.2460368.0307494.1575196.0513471.2255645.0921747c.0748199.040754.140361.092469.1947822.1536.0612698.0544368.1129663.1198345.1538374.1946483.8471002 1.289931 1.6338878 2.6191448 2.35808 3.9840368.7241921 1.3649655 1.3844634 2.765977 1.9788253 4.1991356.5943619 1.4263908 1.1211944 2.8786759 1.5788774 4.3528828.4577566 1.4809011.8443017 2.9776183 1.1586044 4.4858115" fill="#e6237a"/><path d="m24.9237361 63.6633085 5.2084545-58.24537011.9432025 5.17215631.9432761-10.59008734 6.4489484 63.66330114z" fill="#f7e81c"/><g transform="translate(0 33.368202)"><path d="m28.6762285 15.1474023h1.0560215c.0339488-1.807669-.2649627-3.6094529-.8817117-5.31553104-.609974-1.69931034-1.5309367-3.27540229-2.7170094-4.6497839-1.1792241-1.3676138-2.6006556-2.5132138-4.1933777-3.37978851-1.5926484-.8598069-3.3302972-1.4221977-5.1263439-1.65921839s-3.6205928-.14322759-5.3826906.27652414c-1.76217157.41298391-3.43376385 1.14898391-4.93156178 2.17129195-1.49787158 1.01554023-2.79757342 2.29657012-3.83452178 3.77923678-1.03017333 1.48943449-1.78433767 3.15233104-2.22486215 4.90585747-.43374944 1.7534529-.545022 3.5760552-.32807364 5.3769563.21687472 1.7940598.7590247 3.5333885 1.59942344 5.1311816.84717378 1.604561 1.98007723 3.0383081 3.3423745 4.2298851 1.36229726 1.1982713 2.92961293 2.1356138 4.62396048 2.7652414 1.69442123.6296276 3.49459183.9455816 5.31096363.9320459 1.8095968-.0135356 3.6028451-.3572229 5.2904176-1.0139218 1.6875725-.6635402 3.2410436-1.6251586 4.5830157-2.8370391 1.3418985-1.2187218 2.4470391-2.6697563 3.2603377-4.281085v-2.8471908c-.4808065 1.6640735-1.2779039 3.2253793-2.3478437 4.5985839-1.0631648 1.3664368-2.3789942 2.5243218-3.8755402 3.4105379-1.4898447.8793747-3.1397863 1.4739862-4.8598348 1.7513195-1.7132735.2705656-3.4641778.2184092-5.1571262-.1536-1.6997234-.3788505-3.31144496-1.0707862-4.74701568-2.0381425-1.4424194-.9741241-2.68858375-2.2119724-3.67052178-3.6460873-.98193804-1.4273472-1.6850687-3.0303633-2.0710247-4.7215081-.38602964-1.6911448-.4486987-3.4436414-.18454603-5.1618575.26407903-1.7114482.8523287-3.36316317 1.73271487-4.86488271.87353749-1.49495173 2.02573507-2.81636782 3.3936291-3.89193564 1.36111899-1.0688 2.91709384-1.87549425 4.58301572-2.37609195 1.6658482-.49382989 3.4098303-.67111724 5.1365801-.52229885 1.7335986.14881839 3.4219075.62521379 4.9725802 1.40314483 1.5575213.77116322 2.9533992 1.83172413 4.1114145 3.12371494 1.1647166 1.29206437 2.0732339 2.79076782 2.6759173 4.41423448.6026835 1.630308.8951145 3.3584552.8612394 5.0902069" fill="#633289"/><path d="m28.6762285 15.1474023h1.0560215c.0339488-1.807669-.2649627-3.6094529-.8817117-5.31553104-.609974-1.69931034-1.5309367-3.27540229-2.7170094-4.6497839-1.1792241-1.3676138-2.6006556-2.5132138-4.1933777-3.37978851-1.5926484-.8598069-3.3302972-1.4221977-5.1263439-1.65921839s-3.6205928-.14322759-5.3826906.27652414c-1.76217157.41298391-3.43376385 1.14898391-4.93156178 2.17129195-1.49787158 1.01554023-2.79757342 2.29657012-3.83452178 3.77923678-1.03017333 1.48943449-1.78433767 3.15233104-2.22486215 4.90585747-.43374944 1.7534529-.545022 3.5760552-.32807364 5.3769563.21687472 1.7940598.7590247 3.5333885 1.59942344 5.1311816.84717378 1.604561 1.98007723 3.0383081 3.3423745 4.2298851 1.36229726 1.1982713 2.92961293 2.1356138 4.62396048 2.7652414 1.69442123.6296276 3.49459183.9455816 5.31096363.9320459 1.8095968-.0135356 3.6028451-.3572229 5.2904176-1.0139218 1.6875725-.6635402 3.2410436-1.6251586 4.5830157-2.8370391 1.3418985-1.2187218 2.4470391-2.6697563 3.2603377-4.281085v-2.8471908c-.4808065 1.6640735-1.2779039 3.2253793-2.3478437 4.5985839-1.0631648 1.3664368-2.3789942 2.5243218-3.8755402 3.4105379-1.4898447.8793747-3.1397863 1.4739862-4.8598348 1.7513195-1.7132735.2705656-3.4641778.2184092-5.1571262-.1536-1.6997234-.3788505-3.31144496-1.0707862-4.74701568-2.0381425-1.4424194-.9741241-2.68858375-2.2119724-3.67052178-3.6460873-.98193804-1.4273472-1.6850687-3.0303633-2.0710247-4.7215081-.38602964-1.6911448-.4486987-3.4436414-.18454603-5.1618575.26407903-1.7114482.8523287-3.36316317 1.73271487-4.86488271.87353749-1.49495173 2.02573507-2.81636782 3.3936291-3.89193564 1.36111899-1.0688 2.91709384-1.87549425 4.58301572-2.37609195 1.6658482-.49382989 3.4098303-.67111724 5.1365801-.52229885 1.7335986.14881839 3.4219075.62521379 4.9725802 1.40314483 1.5575213.77116322 2.9533992 1.83172413 4.1114145 3.12371494 1.1647166 1.29206437 2.0732339 2.79076782 2.6759173 4.41423448.6026835 1.630308.8951145 3.3584552.8612394 5.0902069" stroke="#633289" stroke-linecap="round" stroke-linejoin="round" stroke-width=".820513"/></g><path d="m13.481669 48.2288257c0-.1825839.0348325-.3600183.1025092-.5223724.0676767-.1689011.1687867-.3221333.297365-.4506482.1285048-.1283679.281974-.2329012.4511289-.3072.1692286-.0676046.3502398-.1024736.5330921-.1024736.1828522 0 .3638635.034869.5331657.1024736.1691549.0742988.3225505.1788321.4511288.3072.1285047.1285149.2296884.2817471.2972915.4506482.0677503.1623541.1025828.3397885.1025828.5223724 0 .182584-.0348325.3634023-.1025828.5325242-.0676031.1689747-.1687868.3222804-.2972915.4506483-.1285783.1284413-.2819739.2294436-.4511288.2970482-.1693022.0743725-.3503135.1126989-.5331657.1126989-.1828523 0-.3638635-.0383264-.5330921-.1126989-.1693022-.0676781-.3224769-.1685333-.4511289-.2970482-.1285783-.1283679-.2296883-.2816736-.297365-.4506483-.0676767-.1691219-.1025092-.3499402-.1025092-.5325242" fill="#633289"/><path d="m27.2511443 37.8231467v25.8401839h-8.0278994v-25.8401839h-.1846197v-1.2802207h-.1844723v-7.5686989h.6151288v-.6247724l-.6562209-.3789977h.8817854c.1299039-.2594575.2563466-.5222988.3793282-.7885977.1299039-.2662253.2529591-.5325977.3691657-.7988965.1229816-.2662989.2426493-.5325977.3588559-.798823.1160592-.2662989.2289519-.5359816.3382362-.8091219h.020546v-.2355494l-.8509295-.5018483h.8509295v-1.7513195h-.1947822v-.542823c.2255644-.6486069.434044-1.3008184.625365-1.9562667.1982434-.6554482.3794019-1.3144276.5434019-1.9767172.1640737-.6622161.3179111-1.3280368.4614387-1.9970207.1366053-.669131.2596605-1.3384092.3690921-2.0073931l.2665828.0204506.2665829-.0204506c.1092842.6689839.2358006 1.3382621.3792546 2.0073931.1367525.6689839.2871288 1.3348046.4511288 1.9970207.1709224.6622896.3520809 1.321269.5434019 1.9767172.1982434.6554483.4067966 1.3076598.6254387 1.9562667v.542823h-.1947822v1.7513195h.8510032l-.8510032.5018483v.2355494h.0307822c.1092843.2731403.2221033.542823.3383099.8091219.1162065.2662253.2324131.5325241.3486196.798823.1230553.2662988.2460369.5326712.3690921.7988965.1230552.2662989.2494243.5291402.3793282.7885977h.8817854l-.6562209.3789977v.6247724h.6152025v7.5686989h-.1846197v1.2802207z" fill="#5bb14a"/><path d="m53.3956679 50.5844303h-.3793283v7.0259495h.3793283v6.0529287h-25.6524131v-6.0529287h.3794019v-7.0259495h-.3794019v-1.3108965l-.93304-.7579218h3.7731046v-5.4486805l-1.486678-.8397977h1.486678v-.7373977h.1742362l-.0307822-.6861977c-.0204724-.6001287-.0033139-1.2024644.0512546-1.8025931.0546421-.6001287.1505972-1.195623.2872025-1.782069.1296094-.5796781.3008999-1.1546483.5125461-1.7206437.2116461-.5592275.4582721-1.1067586.7381841-1.6386942.2794701-.5242851.6128459-1.0186299.9945307-1.4747954.3816848-.4630805.8078491-.8818759 1.2713498-1.2495448.4635007-.3745104.9652214-.7006161 1.4969879-.9729472.5316192-.2724046 1.0882766-.4920643 1.6608406-.6555218l.1743835-.0512v-.3891494h-.4716749v-.5530483h1.1790031v-6.0427035h.6972393v-3.0725885l.8406934-1.9561931c-.1084742-.0473747-.2091424-.1132873-.2972178-.1945747-.0882964-.0812873-.161128-.1783908-.2154019-.2867494-.0542003-.1016644-.0889592-.2125977-.1025092-.3277241-.0203988-.1219679-.016864-.2432736.0102362-.3584736.0203251-.1152.0620799-.2262069.1230552-.3277241.061049-.1016644.1408029-.1917794.2358006-.2663725.0949241-.0744459.1990535-.1333701.3076749-.1740505.1151756-.0406805.2332232-.0614253.3484724-.0614253.1220979 0 .2400719.0207448.3486197.0614253.1153228.0406804.2193785.0996046.3076012.1740505.0949242.0745931.1747517.1647081.2358007.2663725.0610489.1015172.1026565.2125241.1230552.3277241.0271001.1152.0305613.2365057.0102362.3584736-.0135501.1151264-.0482353.2260597-.1025829.3277241-.0542002.1083586-.1271055.2054621-.2151809.2867494-.0882964.0812874-.1888909.1472-.2974387.1945747l.8407669 1.9561931v3.0725885h.7074019v6.0427035h1.1688406v.5530483h-.4716012v.3891494l.1846196.0512c.5724904.1634575 1.1258339.3831172 1.6506781.6555218.5316192.2723311 1.0332662.5984368 1.4968406.9729472.4635743.3676689.8895913.7864643 1.2713498 1.2495448.3816847.4561655.7149869.9505103.9944571 1.4747954.279912.5319356.5266852 1.0794667.7383314 1.6386942.2114988.5659954.3862505 1.1409656.5227822 1.7206437.129683.586446.2221769 1.1819403.276819 1.782069s.0718006 1.2024644.0512546 1.8025931l-.0307086.6861977h.1743099v.7373977h1.4866044l-1.4866044.8397977v5.4486805h3.7729573l-.9329663.7579218z" fill="#2ba8e0"/><g fill="#fefefe"><path d="m108.729835 63.601817h-3.865304l-8.7867032-13.6114023v13.6114023h-4.3368317v-22.1735724h3.865304l8.7968659 13.5806529v-13.5806529h4.326669z"/><path d="m72.7015829 63.601817h-14.4051208v-22.1735724h4.3369053v18.3123862h10.0682155z"/><path d="m17.0033683 22.2152239h-3.865304l-8.79686574-13.61140229v13.61140229h-4.32659542v-22.17357241h3.86523036l8.7865559 13.58065291v-13.58065291h4.3369789z" mask="url(#a)" transform="translate(146.988774 41.386593)"/><path d="m139.805898 58.4399595c-.72456.9900138-1.732641 1.4850207-3.024537 1.4850207-1.162065 0-2.098346-.3925333-2.809282-1.1777471-.540015-.6214621-.871549-1.6182437-.994531-2.9907126-.040945-.3754667-.061565-1.4542713-.061565-3.2364138 0-1.7888368.02062-2.8676414.061565-3.2363403.122982-1.3723954.454516-2.3693241.994531-2.990639.710936-.7921288 1.647217-1.188046 2.809282-1.188046 1.14152 0 2.067637.3959172 2.778427 1.188046.56056.6213149.902257 1.6182436 1.025386 2.990639.041019.4506483.061417 1.5294529.061417 3.2363403 0 3.1749885-.280206 5.1483218-.840693 5.9198528m4.890543-10.938262c-.266509-1.5362943-.909106-2.8132046-1.927497-3.8305104-1.619969-1.6182437-3.615732-2.4272919-5.987583-2.4272919-2.392397 0-4.39847.8090482-6.018439 2.4272919-.997918.9969288-1.640368 2.273692-1.927497 3.8305104-.170849.9149057-.256273 2.5876597-.256273 5.0184092 0 2.4307494.085424 4.1001931.256273 5.0082574.287129 1.5568184.929579 2.8336552 1.927497 3.8305104 1.619969 1.6250115 3.626042 2.4375172 6.018439 2.4375172 2.371851 0 4.367614-.8125057 5.987583-2.4375172 1.018391-1.0173793 1.660988-2.2941425 1.927497-3.8305104.191469-.9285885.287129-2.5979586.287129-5.0082574 0-2.4101518-.09566-4.0830529-.287129-5.0184092"/><path d="m122.878594 56.2891697c-.123055.9149793-.382789 1.6079448-.779202 2.0790436-.745033.9149793-1.824988 1.3723954-3.239865 1.3723954h-3.270648v-14.4512h3.270648c1.414877 0 2.494832.4574897 3.239865 1.3723954.396413.4779403.656147 1.1436874.779202 1.9971679.10251.7237885.153838 1.9801011.153838 3.7690114 0 1.8025196-.051328 3.0895817-.153838 3.8611863m4.306197-8.6338943c-.273432-1.6386943-.960361-3.0077057-2.060862-4.1069609-1.414951-1.4133701-3.369769-2.120092-5.864528-2.120092h-8.007427v22.1735724h8.007427c2.494759 0 4.449577-.7032643 5.864528-2.1097931 1.100501-1.1060965 1.78743-2.5092413 2.060862-4.2094344.122982-.7646897.184472-2.3829334.184472-4.854584 0-2.4307494-.06149-4.0216275-.184472-4.772708"/><path d="m84.55379 58.6140984c-.731409.9900138-1.7395635 1.4850207-3.024537 1.4850207-1.1688406 0-2.1052681-.3926069-2.8092825-1.1778207-.5399407-.6213885-.8714755-1.6181701-.9946044-2.9906391-.0408711-.3754667-.0614908-1.4542713-.0614908-3.2364138 0-1.7888368.0206197-2.8676414.0614908-3.2364138.1231289-1.3723954.4546637-2.3693241.9946044-2.9905655.7040144-.7921287 1.6404419-1.188046 2.8092825-1.188046 1.1414459 0 2.0642496.3959173 2.768264 1.188046.5604868.6212414.9055716 1.6181701 1.0354755 2.9905655.0410185.4506483.0615645 1.5294529.0615645 3.2364138 0 3.1749885-.2803539 5.1482483-.840767 5.9198529m4.8905434-10.9383356c-.2665092-1.5362207-.9091065-2.8131311-1.9275708-3.8305104-1.6266708-1.6181701-3.622581-2.4272919-5.9875096-2.4272919-2.392397 0-4.3984697.8091218-6.0184392 2.4272919-.9979182.9969287-1.6438293 2.2737655-1.9377332 3.8305104-.164.9149057-.2460369 2.5877333-.2460369 5.0184827 0 2.4306759.0820369 4.1001931.2460369 5.0082575.2939039 1.5568184.939815 2.8336552 1.9377332 3.8305103 1.6199695 1.6250115 3.6260422 2.4374437 6.0184392 2.4374437 2.3649286 0 4.3608388-.8124322 5.9875096-2.4374437 1.0184643-1.0173793 1.6610616-2.2942896 1.9275708-3.8305103.1846196-.9353563.2768926-2.6048736.2768926-5.0082575 0-2.4102253-.092273-4.0831264-.2768926-5.0184827"/><path d="m141.14899 38.7141885h1.69177v-22.1735724h-1.69177z" mask="url(#b)"/><path d="m163.992142 38.7141738h-1.68146l-12.815933-19.2854069v19.2854069h-1.681461v-22.1735724h1.681461l12.815933 19.2033839v-19.2033839h1.68146z" mask="url(#b)"/></g><path d="m93.3814674 38.7141885h5.4647275v-22.1735724h-5.4647275z" fill="#e6237a" mask="url(#b)"/><path d="m135.089591 38.7141738h-15.102213v-22.1735724h15.102213v4.8444322h-9.637485v3.7178115h8.243154v4.8648827h-8.243154v3.8917885h9.637485z" fill="#e6237a" mask="url(#b)"/><path d="m68.9285225 24.7750179c-.184546.3414069-.4579039.6145472-.8202209.8193472-.3553947.2048735-.7723539.3072-1.2508038.3072h-3.0963377v-4.4858115h3.0963377c.4784499 0 .8954091.1057103 1.2508038.3174253.362317.2048735.6356749.4813241.8202209.8296459.1914683.3413334.2871289.7100322.2871289 1.1060966 0 .3960643-.0956606.7646896-.2871289 1.1060965m4.8598348-4.6190345c-.5946565-1.0857195-1.4592097-1.9596505-2.5938806-2.6220137-1.1346709-.6622897-2.5016812-.9933977-4.1011783-.9933977h-8.7968657v22.1735724h5.4647274v-7.9066483h3.3321383c1.5994971 0 2.9665074-.3346391 4.1011783-1.0037701 1.1346709-.6690575 1.9992241-1.546446 2.5938806-2.6321655.5946564-1.085646.8920215-2.2531679.8920215-3.5026391 0-1.2563127-.2973651-2.427292-.8920215-3.512938" fill="#e6237a" mask="url(#b)"/><path d="m86.1326969 24.7750179c-.184546.3414069-.4579775.6145472-.8202209.8193472-.3622434.2048735-.7826637.3072-1.2611136.3072h-3.0860279v-4.4858115h3.0860279c.4784499 0 .8988702.1057103 1.2611136.3174253.3622434.2048735.6356749.4813241.8202209.8296459.1914683.3413334.2870552.7100322.2870552 1.1060966 0 .3960643-.0955869.7646896-.2870552 1.1060965zm2.1223529 4.6907587c1.004767-.4984644 1.8591577-1.2427035 2.563172-2.2327909.7108631-.9830988 1.0662578-2.1712183 1.0662578-3.5640643 0-1.2563127-.2972915-2.427292-.8919479-3.512938-.5946565-1.0857195-1.4592834-1.9596505-2.5938806-2.6220137-1.1415195-.6622897-2.5086035-.9933977-4.1011783-.9933977h-8.7968657v22.1735724h5.4647274v-8.2651219h1.8455339l3.9267212 8.2651219h6.3158042z" fill="#e6237a" mask="url(#b)"/><path d="m113.138408 30.5001637c-.040945.6281563-.09566 1.0719632-.164 1.3314942-.061491.2593839-.177697.518915-.348619.778446-.560414.8328828-1.435277 1.2493977-2.624663 1.2493977h-2.399172v-12.4744827h2.399172c1.189386 0 2.064249.4164413 2.624663 1.2493977.232413.3345655.386177.7955862.461438 1.3826942.075115.5804138.112746 1.7821425.112746 3.6051126 0 1.290446-.020473 2.249784-.061565 2.8779403m5.382838-7.4253242c-.095734-.7578482-.311136-1.5054712-.646058-2.2429425-.334923-.7305563-.844081-1.4372781-1.527623-2.1200919-1.449047-1.4475035-3.441423-2.1712184-5.977347-2.1712184h-8.243154v22.1735724h8.243154c2.535924 0 4.5283-.7271724 5.977347-2.1815173.683542-.6759724 1.1927-1.3826942 1.527623-2.1200184.334922-.7306298.550324-1.4747954.646058-2.2327908.095661-.7579218.143454-1.672754.143454-2.7447908v-3.6154115c0-1.0788046-.047793-1.9937103-.143454-2.7447908" fill="#e6237a" mask="url(#b)"/></g></svg>